<?xml version="1.0" encoding="UTF-8" standalone="no"?><svg xmlns:svg="http://www.w3.org/2000/svg" xmlns="http://www.w3.org/2000/svg" xmlns:xlink="http://www.w3.org/1999/xlink" version="1.0" width="64px" height="64px" viewBox="0 0 128 128" xml:space="preserve"><g><path d="M63.88 0a8.02 8.02 0 1 1-8.02 8.02A8.02 8.02 0 0 1 63.88 0zm0 32.06a4 4 0 1 1-4 4 4 4 0 0 1 4-4zm0-14.02a6 6 0 1 1-6.02 6 6 6 0 0 1 6.02-6z" fill="#24a0d9"/><path d="M63.88 0a8.02 8.02 0 1 1-8.02 8.02A8.02 8.02 0 0 1 63.88 0zm0 32.06a4 4 0 1 1-4 4 4 4 0 0 1 4-4zm0-14.02a6 6 0 1 1-6.02 6 6 6 0 0 1 6.02-6z" fill="#f9fcfe" transform="rotate(30 64 64)"/><path d="M63.88 0a8.02 8.02 0 1 1-8.02 8.02A8.02 8.02 0 0 1 63.88 0zm0 32.06a4 4 0 1 1-4 4 4 4 0 0 1 4-4zm0-14.02a6 6 0 1 1-6.02 6 6 6 0 0 1 6.02-6z" fill="#ebf6fc" transform="rotate(60 64 64)"/><path d="M63.88 0a8.02 8.02 0 1 1-8.02 8.02A8.02 8.02 0 0 1 63.88 0zm0 32.06a4 4 0 1 1-4 4 4 4 0 0 1 4-4zm0-14.02a6 6 0 1 1-6.02 6 6 6 0 0 1 6.02-6z" fill="#daeff9" transform="rotate(90 64 64)"/><path d="M63.88 0a8.02 8.02 0 1 1-8.02 8.02A8.02 8.02 0 0 1 63.88 0zm0 32.06a4 4 0 1 1-4 4 4 4 0 0 1 4-4zm0-14.02a6 6 0 1 1-6.02 6 6 6 0 0 1 6.02-6z" fill="#c7e7f5" transform="rotate(120 64 64)"/><path d="M63.88 0a8.02 8.02 0 1 1-8.02 8.02A8.02 8.02 0 0 1 63.88 0zm0 32.06a4 4 0 1 1-4 4 4 4 0 0 1 4-4zm0-14.02a6 6 0 1 1-6.02 6 6 6 0 0 1 6.02-6z" fill="#b3def2" transform="rotate(150 64 64)"/><path d="M63.88 0a8.02 8.02 0 1 1-8.02 8.02A8.02 8.02 0 0 1 63.88 0zm0 32.06a4 4 0 1 1-4 4 4 4 0 0 1 4-4zm0-14.02a6 6 0 1 1-6.02 6 6 6 0 0 1 6.02-6z" fill="#9ed5ee" transform="rotate(180 64 64)"/><path d="M63.88 0a8.02 8.02 0 1 1-8.02 8.02A8.02 8.02 0 0 1 63.88 0zm0 32.06a4 4 0 1 1-4 4 4 4 0 0 1 4-4zm0-14.02a6 6 0 1 1-6.02 6 6 6 0 0 1 6.02-6z" fill="#87cbea" transform="rotate(210 64 64)"/><path d="M63.88 0a8.02 8.02 0 1 1-8.02 8.02A8.02 8.02 0 0 1 63.88 0zm0 32.06a4 4 0 1 1-4 4 4 4 0 0 1 4-4zm0-14.02a6 6 0 1 1-6.02 6 6 6 0 0 1 6.02-6z" fill="#71c2e6" transform="rotate(240 64 64)"/><path d="M63.88 0a8.02 8.02 0 1 1-8.02 8.02A8.02 8.02 0 0 1 63.88 0zm0 32.06a4 4 0 1 1-4 4 4 4 0 0 1 4-4zm0-14.02a6 6 0 1 1-6.02 6 6 6 0 0 1 6.02-6z" fill="#5cb8e3" transform="rotate(270 64 64)"/><path d="M63.88 0a8.02 8.02 0 1 1-8.02 8.02A8.02 8.02 0 0 1 63.88 0zm0 32.06a4 4 0 1 1-4 4 4 4 0 0 1 4-4zm0-14.02a6 6 0 1 1-6.02 6 6 6 0 0 1 6.02-6z" fill="#48b0df" transform="rotate(300 64 64)"/><path d="M63.88 0a8.02 8.02 0 1 1-8.02 8.02A8.02 8.02 0 0 1 63.88 0zm0 32.06a4 4 0 1 1-4 4 4 4 0 0 1 4-4zm0-14.02a6 6 0 1 1-6.02 6 6 6 0 0 1 6.02-6z" fill="#36a8dc" transform="rotate(330 64 64)"/><animateTransform attributeName="transform" type="rotate" values="0 64 64;30 64 64;60 64 64;90 64 64;120 64 64;150 64 64;180 64 64;210 64 64;240 64 64;270 64 64;300 64 64;330 64 64" calcMode="discrete" dur="1080ms" repeatCount="indefinite"></animateTransform></g></svg>